<svg width="42" height="42" viewBox="0 0 42 42" fill="none" xmlns="http://www.w3.org/2000/svg">
<path d="M3 28.875C3 28.1788 3.27656 27.5111 3.76884 27.0188C4.26113 26.5266 4.92881 26.25 5.625 26.25H10.875C11.5712 26.25 12.2389 26.5266 12.7312 27.0188C13.2234 27.5111 13.5 28.1788 13.5 28.875V36.75C13.5 37.4462 13.2234 38.1139 12.7312 38.6062C12.2389 39.0984 11.5712 39.375 10.875 39.375H5.625C4.92881 39.375 4.26113 39.0984 3.76884 38.6062C3.27656 38.1139 3 37.4462 3 36.75V28.875ZM16.125 18.375C16.125 17.6788 16.4016 17.0111 16.8938 16.5188C17.3861 16.0266 18.0538 15.75 18.75 15.75H24C24.6962 15.75 25.3639 16.0266 25.8562 16.5188C26.3484 17.0111 26.625 17.6788 26.625 18.375V36.75C26.625 37.4462 26.3484 38.1139 25.8562 38.6062C25.3639 39.0984 24.6962 39.375 24 39.375H18.75C18.0538 39.375 17.3861 39.0984 16.8938 38.6062C16.4016 38.1139 16.125 37.4462 16.125 36.75V18.375ZM29.25 5.25C29.25 4.55381 29.5266 3.88613 30.0188 3.39384C30.5111 2.90156 31.1788 2.625 31.875 2.625H37.125C37.8212 2.625 38.4889 2.90156 38.9812 3.39384C39.4734 3.88613 39.75 4.55381 39.75 5.25V36.75C39.75 37.4462 39.4734 38.1139 38.9812 38.6062C38.4889 39.0984 37.8212 39.375 37.125 39.375H31.875C31.1788 39.375 30.5111 39.0984 30.0188 38.6062C29.5266 38.1139 29.25 37.4462 29.25 36.75V5.25Z" fill="black"/>
</svg>
