<svg width="32" height="32" viewBox="0 0 32 32" fill="none" xmlns="http://www.w3.org/2000/svg">
<path fill-rule="evenodd" clip-rule="evenodd" d="M12 7C12 6.73478 12.1054 6.48043 12.2929 6.29289C12.4804 6.10536 12.7348 6 13 6H29C29.2652 6 29.5196 6.10536 29.7071 6.29289C29.8946 6.48043 30 6.73478 30 7V25C30 25.2652 29.8946 25.5196 29.7071 25.7071C29.5196 25.8946 29.2652 26 29 26H13C12.7348 26 12.4804 25.8946 12.2929 25.7071C12.1054 25.5196 12 25.2652 12 25V21C12 20.7348 11.8946 20.4804 11.7071 20.2929C11.5196 20.1054 11.2652 20 11 20C10.7348 20 10.4804 20.1054 10.2929 20.2929C10.1054 20.4804 10 20.7348 10 21V25C10 25.7956 10.3161 26.5587 10.8787 27.1213C11.4413 27.6839 12.2044 28 13 28H29C29.7956 28 30.5587 27.6839 31.1213 27.1213C31.6839 26.5587 32 25.7956 32 25V7C32 6.20435 31.6839 5.44129 31.1213 4.87868C30.5587 4.31607 29.7956 4 29 4H13C12.2044 4 11.4413 4.31607 10.8787 4.87868C10.3161 5.44129 10 6.20435 10 7V11C10 11.2652 10.1054 11.5196 10.2929 11.7071C10.4804 11.8946 10.7348 12 11 12C11.2652 12 11.5196 11.8946 11.7071 11.7071C11.8946 11.5196 12 11.2652 12 11V7Z" fill="black"/>
<path fill-rule="evenodd" clip-rule="evenodd" d="M23.708 16.708C23.8011 16.6151 23.875 16.5048 23.9254 16.3833C23.9758 16.2618 24.0018 16.1315 24.0018 16C24.0018 15.8685 23.9758 15.7382 23.9254 15.6167C23.875 15.4952 23.8011 15.3849 23.708 15.292L17.708 9.292C17.615 9.19902 17.5046 9.12527 17.3832 9.07495C17.2617 9.02463 17.1315 8.99873 17 8.99873C16.8685 8.99873 16.7383 9.02463 16.6168 9.07495C16.4954 9.12527 16.385 9.19902 16.292 9.292C16.199 9.38497 16.1253 9.49535 16.075 9.61683C16.0246 9.73831 15.9987 9.86851 15.9987 10C15.9987 10.1315 16.0246 10.2617 16.075 10.3832C16.1253 10.5046 16.199 10.615 16.292 10.708L20.586 15H3C2.73478 15 2.48043 15.1054 2.29289 15.2929C2.10536 15.4804 2 15.7348 2 16C2 16.2652 2.10536 16.5196 2.29289 16.7071C2.48043 16.8946 2.73478 17 3 17H20.586L16.292 21.292C16.199 21.385 16.1253 21.4954 16.075 21.6168C16.0246 21.7383 15.9987 21.8685 15.9987 22C15.9987 22.1315 16.0246 22.2617 16.075 22.3832C16.1253 22.5046 16.199 22.615 16.292 22.708C16.385 22.801 16.4954 22.8747 16.6168 22.925C16.7383 22.9754 16.8685 23.0013 17 23.0013C17.1315 23.0013 17.2617 22.9754 17.3832 22.925C17.5046 22.8747 17.615 22.801 17.708 22.708L23.708 16.708Z" fill="black"/>
</svg>
