<svg width="32" height="32" viewBox="0 0 32 32" fill="none" xmlns="http://www.w3.org/2000/svg">
<g clip-path="url(#clip0_48_2012)">
<path fill-rule="evenodd" clip-rule="evenodd" d="M12 25C12 25.2652 12.1054 25.5196 12.2929 25.7071C12.4804 25.8946 12.7348 26 13 26H29C29.2652 26 29.5196 25.8946 29.7071 25.7071C29.8946 25.5196 30 25.2652 30 25V7C30 6.73478 29.8946 6.48043 29.7071 6.29289C29.5196 6.10536 29.2652 6 29 6H13C12.7348 6 12.4804 6.10536 12.2929 6.29289C12.1054 6.48043 12 6.73478 12 7V11C12 11.2652 11.8946 11.5196 11.7071 11.7071C11.5196 11.8946 11.2652 12 11 12C10.7348 12 10.4804 11.8946 10.2929 11.7071C10.1054 11.5196 10 11.2652 10 11V7C10 6.20435 10.3161 5.44129 10.8787 4.87868C11.4413 4.31607 12.2044 4 13 4H29C29.7956 4 30.5587 4.31607 31.1213 4.87868C31.6839 5.44129 32 6.20435 32 7V25C32 25.7956 31.6839 26.5587 31.1213 27.1213C30.5587 27.6839 29.7956 28 29 28H13C12.2044 28 11.4413 27.6839 10.8787 27.1213C10.3161 26.5587 10 25.7956 10 25V21C10 20.7348 10.1054 20.4804 10.2929 20.2929C10.4804 20.1054 10.7348 20 11 20C11.2652 20 11.5196 20.1054 11.7071 20.2929C11.8946 20.4804 12 20.7348 12 21V25Z" fill="black"/>
<path fill-rule="evenodd" clip-rule="evenodd" d="M0.292002 16.708C0.198876 16.6151 0.12499 16.5048 0.0745772 16.3833C0.0241643 16.2618 -0.00178528 16.1315 -0.00178528 16C-0.00178528 15.8685 0.0241643 15.7382 0.0745772 15.6167C0.12499 15.4952 0.198876 15.3849 0.292002 15.292L6.292 9.292C6.38498 9.19902 6.49536 9.12527 6.61684 9.07495C6.73831 9.02463 6.86851 8.99873 7 8.99873C7.13149 8.99873 7.26169 9.02463 7.38317 9.07495C7.50465 9.12527 7.61503 9.19902 7.708 9.292C7.80098 9.38497 7.87473 9.49535 7.92505 9.61683C7.97537 9.73831 8.00127 9.86851 8.00127 10C8.00127 10.1315 7.97537 10.2617 7.92505 10.3832C7.87473 10.5046 7.80098 10.615 7.708 10.708L3.414 15H21C21.2652 15 21.5196 15.1054 21.7071 15.2929C21.8946 15.4804 22 15.7348 22 16C22 16.2652 21.8946 16.5196 21.7071 16.7071C21.5196 16.8946 21.2652 17 21 17H3.414L7.708 21.292C7.80098 21.385 7.87473 21.4954 7.92505 21.6168C7.97537 21.7383 8.00127 21.8685 8.00127 22C8.00127 22.1315 7.97537 22.2617 7.92505 22.3832C7.87473 22.5046 7.80098 22.615 7.708 22.708C7.61503 22.801 7.50465 22.8747 7.38317 22.925C7.26169 22.9754 7.13149 23.0013 7 23.0013C6.86851 23.0013 6.73831 22.9754 6.61684 22.925C6.49536 22.8747 6.38498 22.801 6.292 22.708L0.292002 16.708Z" fill="black"/>
</g>
<defs>
<clipPath id="clip0_48_2012">
<rect width="32" height="32" fill="white"/>
</clipPath>
</defs>
</svg>
