<svg width="35" height="35" viewBox="0 0 35 35" fill="none" xmlns="http://www.w3.org/2000/svg">
<g clip-path="url(#clip0_33_1009)">
<path d="M34.6172 0.262509C34.7968 0.415771 34.9219 0.623008 34.9739 0.853261C35.026 1.08352 35.0021 1.32443 34.906 1.54001C31.5591 9.04313 24.5307 19.4119 19.3857 24.815C17.9436 26.3265 16.165 27.4762 14.1947 28.1706C14.1553 28.6672 14.0635 29.3475 13.8447 30.0694C13.405 31.5109 12.3857 33.3047 10.1085 33.8756C7.9031 34.4008 5.61757 34.4988 3.37534 34.1644C2.9584 34.0985 2.54733 33.9998 2.14597 33.8691C1.77464 33.7561 1.42855 33.5726 1.12659 33.3288C0.927464 33.1594 0.774027 32.9428 0.68034 32.6988C0.564224 32.3856 0.567338 32.0407 0.68909 31.7297C0.896903 31.1938 1.38034 30.8984 1.69753 30.7409C2.5594 30.31 3.06471 29.75 3.59409 28.9341C3.8019 28.6191 3.99659 28.2844 4.2219 27.9016L4.47784 27.4684C4.80815 26.9106 5.19096 26.2872 5.67221 25.6134C6.82721 23.9969 8.2994 23.59 9.49159 23.6534C9.76722 23.6688 10.0232 23.7081 10.2528 23.7584C10.3885 23.3822 10.5635 22.9272 10.7735 22.4284C11.3444 21.0744 12.2128 19.3244 13.37 17.9025C18.13 12.0619 26.8888 4.32688 33.3135 0.175009C33.5113 0.047346 33.745 -0.0130946 33.9798 0.00266942C34.2147 0.0184335 34.4383 0.109561 34.6172 0.262509Z" fill="black"/>
</g>
<defs>
<clipPath id="clip0_33_1009">
<rect width="35" height="35" fill="white"/>
</clipPath>
</defs>
</svg>
