<svg width="41" height="41" viewBox="0 0 41 41" fill="none" xmlns="http://www.w3.org/2000/svg">
<path d="M28.5463 22.4296L14.4986 34.7193C12.8458 36.1697 10.25 34.9909 10.25 32.7898L10.25 8.21025C10.2496 7.71763 10.3912 7.23532 10.6578 6.82109C10.9244 6.40686 11.3048 6.07827 11.7534 5.87466C12.202 5.67106 12.6997 5.60107 13.1871 5.67308C13.6744 5.74509 14.1307 5.95605 14.5012 6.28069L28.5437 18.5704C28.8189 18.811 29.0395 19.1076 29.1907 19.4404C29.3418 19.7732 29.42 20.1345 29.42 20.5C29.42 20.8655 29.3418 21.2268 29.1907 21.5596C29.0395 21.8924 28.8189 22.189 28.5437 22.4296H28.5463Z" fill="black"/>
</svg>
