<svg width="41" height="41" viewBox="0 0 41 41" fill="none" xmlns="http://www.w3.org/2000/svg">
<path d="M18.5704 28.5463L6.28069 14.4986C4.83031 12.8458 6.00906 10.25 8.21025 10.25H32.7897C33.2824 10.2496 33.7647 10.3912 34.1789 10.6578C34.5931 10.9244 34.9217 11.3048 35.1253 11.7534C35.3289 12.202 35.3989 12.6997 35.3269 13.1871C35.2549 13.6744 35.044 14.1307 34.7193 14.5012L22.4296 28.5437C22.189 28.8189 21.8924 29.0395 21.5596 29.1907C21.2268 29.3418 20.8655 29.42 20.5 29.42C20.1345 29.42 19.7732 29.3418 19.4404 29.1907C19.1076 29.0395 18.811 28.8189 18.5704 28.5437V28.5463Z" fill="black"/>
</svg>
