<svg width="40" height="40" viewBox="0 0 40 40" fill="none" xmlns="http://www.w3.org/2000/svg">
<g clip-path="url(#clip0_9_1321)">
<path d="M25 1.25C25 0.918479 24.8683 0.600537 24.6339 0.366117C24.3995 0.131696 24.0815 0 23.75 0L16.25 0C15.9185 0 15.6005 0.131696 15.3661 0.366117C15.1317 0.600537 15 0.918479 15 1.25C15 1.58152 14.8683 1.89946 14.6339 2.13388C14.3995 2.3683 14.0815 2.5 13.75 2.5C13.4185 2.5 13.1005 2.6317 12.8661 2.86612C12.6317 3.10054 12.5 3.41848 12.5 3.75V5C12.5 5.33152 12.6317 5.64946 12.8661 5.88388C13.1005 6.1183 13.4185 6.25 13.75 6.25H26.25C26.5815 6.25 26.8995 6.1183 27.1339 5.88388C27.3683 5.64946 27.5 5.33152 27.5 5V3.75C27.5 3.41848 27.3683 3.10054 27.1339 2.86612C26.8995 2.6317 26.5815 2.5 26.25 2.5C25.9185 2.5 25.6005 2.3683 25.3661 2.13388C25.1317 1.89946 25 1.58152 25 1.25Z" fill="black"/>
<path d="M10.2125 2.5H8.75C7.75544 2.5 6.80161 2.89509 6.09835 3.59835C5.39509 4.30161 5 5.25544 5 6.25V36.25C5 37.2446 5.39509 38.1984 6.09835 38.9016C6.80161 39.6049 7.75544 40 8.75 40H31.25C32.2446 40 33.1984 39.6049 33.9017 38.9016C34.6049 38.1984 35 37.2446 35 36.25V6.25C35 5.25544 34.6049 4.30161 33.9017 3.59835C33.1984 2.89509 32.2446 2.5 31.25 2.5H29.7875C29.925 2.89 30 3.3125 30 3.75V5C30 5.99456 29.6049 6.94839 28.9017 7.65165C28.1984 8.35491 27.2446 8.75 26.25 8.75H13.75C12.7554 8.75 11.8016 8.35491 11.0983 7.65165C10.3951 6.94839 10 5.99456 10 5V3.75C10 3.3125 10.075 2.89 10.2125 2.5ZM15 20H25C25.3315 20 25.6495 20.1317 25.8839 20.3661C26.1183 20.6005 26.25 20.9185 26.25 21.25C26.25 21.5815 26.1183 21.8995 25.8839 22.1339C25.6495 22.3683 25.3315 22.5 25 22.5H15C14.6685 22.5 14.3505 22.3683 14.1161 22.1339C13.8817 21.8995 13.75 21.5815 13.75 21.25C13.75 20.9185 13.8817 20.6005 14.1161 20.3661C14.3505 20.1317 14.6685 20 15 20Z" fill="black"/>
</g>
<defs>
<clipPath id="clip0_9_1321">
<rect width="40" height="40" fill="white"/>
</clipPath>
</defs>
</svg>
