<svg width="37" height="37" viewBox="0 0 37 37" fill="none" xmlns="http://www.w3.org/2000/svg">
<g clip-path="url(#clip0_9_1312)">
<path d="M19.6909 2.35644C19.2946 2.32718 18.8974 2.31252 18.5 2.3125V0C18.9545 0.000221601 19.4088 0.0171914 19.8621 0.050875L19.6909 2.35644ZM24.3252 3.39706C23.5839 3.11102 22.8226 2.87991 22.0474 2.70562L22.5538 0.448625C23.4395 0.6475 24.3113 0.911125 25.1577 1.2395L24.3252 3.39706ZM27.4933 5.03894C27.1627 4.81844 26.8241 4.61017 26.4781 4.41456L27.6182 2.40269C28.4088 2.8507 29.1655 3.35619 29.8821 3.91506L28.4599 5.73963C28.1464 5.49503 27.824 5.26208 27.4933 5.04125V5.03894ZM31.7344 9.17831C31.277 8.52844 30.7723 7.91319 30.2244 7.33756L31.8986 5.74194C32.523 6.401 33.1011 7.10631 33.6261 7.84631L31.7344 9.17831ZM33.4549 12.3048C33.3031 11.9382 33.1381 11.5772 32.9601 11.2226L35.0251 10.1819C35.4335 10.9938 35.7813 11.8348 36.0658 12.6979L33.8689 13.4218C33.7446 13.0445 33.6065 12.6719 33.4549 12.3048ZM34.6806 18.1023C34.6619 17.3075 34.5846 16.5153 34.4493 15.7319L36.7271 15.3388C36.8821 16.2314 36.9722 17.1379 36.9954 18.0444L34.6829 18.1023H34.6806ZM34.3776 21.6589C34.4539 21.2658 34.5164 20.8749 34.5649 20.4795L36.8612 20.7639C36.7502 21.6662 36.5724 22.5589 36.3294 23.4349L34.1001 22.8174C34.2065 22.4359 34.299 22.0497 34.3776 21.6589ZM32.1761 27.1603C32.6016 26.4897 32.9762 25.7867 33.3 25.0606L35.4136 25.9971C35.0436 26.8296 34.6158 27.6297 34.1302 28.3975L32.1761 27.1603ZM29.9469 29.9469C30.229 29.6647 30.4996 29.3734 30.7563 29.0727L32.5091 30.5828C32.2123 30.927 31.903 31.2602 31.5818 31.5818L29.9469 29.9469Z" fill="black"/>
<path d="M18.5002 2.3125C15.8382 2.31269 13.2174 2.96936 10.8698 4.22433C8.52226 5.47931 6.5204 7.29386 5.04159 9.50726C3.56277 11.7207 2.65263 14.2646 2.39178 16.9138C2.13093 19.5629 2.52742 22.2355 3.54614 24.6948C4.56486 27.1542 6.17435 29.3243 8.23207 31.0131C10.2898 32.7018 12.7322 33.857 15.343 34.3764C17.9538 34.8958 20.6524 34.7633 23.1998 33.9906C25.7472 33.218 28.0647 31.8291 29.9471 29.9469L31.582 31.5818C29.4308 33.7342 26.7819 35.3228 23.8699 36.2068C20.958 37.0908 17.873 37.2429 14.8882 36.6496C11.9035 36.0563 9.11112 34.736 6.7586 32.8056C4.40607 30.8753 2.566 28.3944 1.40143 25.5829C0.236851 22.7714 -0.216277 19.7161 0.0821923 16.6876C0.380662 13.6591 1.42151 10.751 3.11252 8.22098C4.80353 5.69092 7.09249 3.61701 9.77659 2.18301C12.4607 0.749008 15.4571 -0.000806443 18.5002 6.50872e-07V2.3125Z" fill="black"/>
<path d="M17.3438 6.9375C17.6504 6.9375 17.9445 7.05932 18.1613 7.27616C18.3782 7.493 18.5 7.78709 18.5 8.09375V20.1419L26.011 24.4339C26.2695 24.5898 26.4568 24.8407 26.5328 25.1329C26.6088 25.4251 26.5674 25.7354 26.4176 25.9976C26.2679 26.2597 26.0215 26.4529 25.7312 26.5358C25.4408 26.6186 25.1296 26.5847 24.864 26.4411L16.7702 21.8161C16.5933 21.715 16.4462 21.569 16.3438 21.3927C16.2415 21.2165 16.1876 21.0163 16.1875 20.8125V8.09375C16.1875 7.78709 16.3093 7.493 16.5262 7.27616C16.743 7.05932 17.0371 6.9375 17.3438 6.9375Z" fill="black"/>
</g>
<defs>
<clipPath id="clip0_9_1312">
<rect width="37" height="37" fill="white"/>
</clipPath>
</defs>
</svg>
