<svg width="40" height="40" viewBox="0 0 40 40" fill="none" xmlns="http://www.w3.org/2000/svg">
<path d="M10 0H23.2325C23.8955 0.000141594 24.5313 0.263627 25 0.7325L34.2675 10C34.7364 10.4687 34.9999 11.1045 35 11.7675V35C35 36.3261 34.4732 37.5979 33.5355 38.5355C32.5979 39.4732 31.3261 40 30 40H10C8.67392 40 7.40215 39.4732 6.46447 38.5355C5.52678 37.5979 5 36.3261 5 35V5C5 3.67392 5.52678 2.40215 6.46447 1.46447C7.40215 0.526784 8.67392 0 10 0ZM23.75 3.75V8.75C23.75 9.41304 24.0134 10.0489 24.4822 10.5178C24.9511 10.9866 25.587 11.25 26.25 11.25H31.25L23.75 3.75Z" fill="black"/>
</svg>
