<svg width="34" height="34" viewBox="0 0 34 34" fill="none" xmlns="http://www.w3.org/2000/svg">
<path d="M2.04 6.12C1.94989 6.11872 1.86043 6.13537 1.77681 6.16897C1.69319 6.20257 1.61709 6.25246 1.55291 6.31573C1.48874 6.379 1.43779 6.45439 1.40301 6.53753C1.36823 6.62066 1.35032 6.70988 1.35032 6.8C1.35032 6.89012 1.36823 6.97933 1.40301 7.06247C1.43779 7.1456 1.48874 7.221 1.55291 7.28427C1.61709 7.34754 1.69319 7.39742 1.77681 7.43102C1.86043 7.46463 1.94989 7.48127 2.04 7.48H31.96C32.0501 7.48127 32.1396 7.46463 32.2232 7.43102C32.3068 7.39742 32.3829 7.34754 32.4471 7.28427C32.5113 7.221 32.5622 7.1456 32.597 7.06247C32.6318 6.97933 32.6497 6.89012 32.6497 6.8C32.6497 6.70988 32.6318 6.62066 32.597 6.53753C32.5622 6.45439 32.5113 6.379 32.4471 6.31573C32.3829 6.25246 32.3068 6.20257 32.2232 6.16897C32.1396 6.13537 32.0501 6.11872 31.96 6.12H2.04ZM2.04 16.32C1.94989 16.3187 1.86043 16.3354 1.77681 16.369C1.69319 16.4026 1.61709 16.4525 1.55291 16.5157C1.48874 16.579 1.43779 16.6544 1.40301 16.7375C1.36823 16.8207 1.35032 16.9099 1.35032 17C1.35032 17.0901 1.36823 17.1793 1.40301 17.2625C1.43779 17.3456 1.48874 17.421 1.55291 17.4843C1.61709 17.5475 1.69319 17.5974 1.77681 17.631C1.86043 17.6646 1.94989 17.6813 2.04 17.68H31.96C32.0501 17.6813 32.1396 17.6646 32.2232 17.631C32.3068 17.5974 32.3829 17.5475 32.4471 17.4843C32.5113 17.421 32.5622 17.3456 32.597 17.2625C32.6318 17.1793 32.6497 17.0901 32.6497 17C32.6497 16.9099 32.6318 16.8207 32.597 16.7375C32.5622 16.6544 32.5113 16.579 32.4471 16.5157C32.3829 16.4525 32.3068 16.4026 32.2232 16.369C32.1396 16.3354 32.0501 16.3187 31.96 16.32H2.04ZM2.04 26.52C1.94989 26.5187 1.86043 26.5354 1.77681 26.569C1.69319 26.6026 1.61709 26.6525 1.55291 26.7157C1.48874 26.779 1.43779 26.8544 1.40301 26.9375C1.36823 27.0207 1.35032 27.1099 1.35032 27.2C1.35032 27.2901 1.36823 27.3793 1.40301 27.4625C1.43779 27.5456 1.48874 27.621 1.55291 27.6843C1.61709 27.7475 1.69319 27.7974 1.77681 27.831C1.86043 27.8646 1.94989 27.8813 2.04 27.88H31.96C32.0501 27.8813 32.1396 27.8646 32.2232 27.831C32.3068 27.7974 32.3829 27.7475 32.4471 27.6843C32.5113 27.621 32.5622 27.5456 32.597 27.4625C32.6318 27.3793 32.6497 27.2901 32.6497 27.2C32.6497 27.1099 32.6318 27.0207 32.597 26.9375C32.5622 26.8544 32.5113 26.779 32.4471 26.7157C32.3829 26.6525 32.3068 26.6026 32.2232 26.569C32.1396 26.5354 32.0501 26.5187 31.96 26.52H2.04Z" fill="black"/>
</svg>
