<svg width="35" height="35" viewBox="0 0 35 35" fill="none" xmlns="http://www.w3.org/2000/svg">
<g clip-path="url(#clip0_24_396)">
<path d="M34.6578 3.37771C34.877 3.59749 35 3.89516 35 4.20549C35 4.51582 34.877 4.8135 34.6578 5.03328L32.2117 7.48145L27.5211 2.79146L29.9672 0.343291C30.1871 0.123482 30.4854 0 30.7963 0C31.1072 0 31.4055 0.123482 31.6254 0.343291L34.6578 3.37537V3.37771ZM30.5536 9.13701L25.863 4.44703L9.88449 20.4258C9.75541 20.5548 9.65824 20.7122 9.60071 20.8854L7.71274 26.5462C7.67851 26.6494 7.67364 26.7601 7.6987 26.8659C7.72376 26.9717 7.77776 27.0685 7.85465 27.1454C7.93155 27.2222 8.02831 27.2762 8.13413 27.3013C8.23994 27.3263 8.35064 27.3215 8.45386 27.2873L14.1154 25.3995C14.2884 25.3427 14.4458 25.2464 14.5751 25.1181L30.5536 9.13701Z" fill="black"/>
<path fill-rule="evenodd" clip-rule="evenodd" d="M0.853653 30.5793C0.853653 31.5253 1.22947 32.4326 1.89842 33.1016C2.56738 33.7705 3.47468 34.1463 4.42073 34.1463H30.5793C31.5253 34.1463 32.4326 33.7705 33.1016 33.1016C33.7705 32.4326 34.1463 31.5253 34.1463 30.5793V16.311C34.1463 15.9956 34.0211 15.6932 33.7981 15.4702C33.5751 15.2472 33.2727 15.122 32.9573 15.122C32.642 15.122 32.3395 15.2472 32.1165 15.4702C31.8936 15.6932 31.7683 15.9956 31.7683 16.311V30.5793C31.7683 30.8946 31.643 31.1971 31.42 31.42C31.197 31.643 30.8946 31.7683 30.5793 31.7683H4.42073C4.10538 31.7683 3.80294 31.643 3.57996 31.42C3.35697 31.1971 3.2317 30.8946 3.2317 30.5793V4.42073C3.2317 4.10538 3.35697 3.80295 3.57996 3.57997C3.80294 3.35698 4.10538 3.23171 4.42073 3.23171H19.878C20.1934 3.23171 20.4958 3.10644 20.7188 2.88345C20.9418 2.66047 21.0671 2.35803 21.0671 2.04268C21.0671 1.72734 20.9418 1.4249 20.7188 1.20192C20.4958 0.978932 20.1934 0.853661 19.878 0.853661H4.42073C3.47468 0.853661 2.56738 1.22948 1.89842 1.89843C1.22947 2.56739 0.853653 3.47469 0.853653 4.42073V30.5793Z" fill="black"/>
</g>
<defs>
<clipPath id="clip0_24_396">
<rect width="35" height="35" fill="white"/>
</clipPath>
</defs>
</svg>
