<svg width="38" height="38" viewBox="0 0 38 38" fill="none" xmlns="http://www.w3.org/2000/svg">
<g clip-path="url(#clip0_8_1307)">
<path d="M24.4286 8.14286C24.4286 10.3025 23.5707 12.3736 22.0436 13.9007C20.5165 15.4278 18.4453 16.2857 16.2857 16.2857C14.1261 16.2857 12.0549 15.4278 10.5278 13.9007C9.00076 12.3736 8.14286 10.3025 8.14286 8.14286C8.14286 5.98324 9.00076 3.91207 10.5278 2.38499C12.0549 0.857906 14.1261 0 16.2857 0C18.4453 0 20.5165 0.857906 22.0436 2.38499C23.5707 3.91207 24.4286 5.98324 24.4286 8.14286ZM0 29.8571C0 32.5714 2.71429 32.5714 2.71429 32.5714H16.9806C16.5191 31.2637 16.2842 29.8868 16.2857 28.5C16.2839 26.7543 16.6572 25.0286 17.3802 23.4397C18.1032 21.8508 19.1592 20.4358 20.4766 19.2904C19.209 19.1031 17.8166 19 16.2857 19C2.71429 19 0 27.1429 0 29.8571ZM26.8334 20.2486C27.322 18.5847 29.678 18.5847 30.1693 20.2486L30.286 20.6503C30.3589 20.8995 30.4867 21.1291 30.6601 21.3224C30.8334 21.5157 31.0479 21.6677 31.2877 21.7671C31.5275 21.8666 31.7866 21.911 32.0459 21.8972C32.3051 21.8834 32.558 21.8116 32.7859 21.6871L33.155 21.4863C34.6777 20.6557 36.3443 22.3223 35.5164 23.845L35.3129 24.2141C35.1889 24.4419 35.1176 24.6945 35.104 24.9535C35.0904 25.2124 35.135 25.4711 35.2344 25.7105C35.3338 25.95 35.4856 26.1642 35.6786 26.3374C35.8716 26.5105 36.1009 26.6383 36.3497 26.7113L36.7541 26.8334C38.4153 27.322 38.4153 29.678 36.7541 30.1693L36.347 30.286C36.0983 30.3595 35.8692 30.4878 35.6765 30.6614C35.4839 30.835 35.3325 31.0496 35.2336 31.2893C35.1347 31.5291 35.0907 31.7879 35.1049 32.0469C35.1191 32.3059 35.1911 32.5583 35.3156 32.7859L35.5164 33.155C36.3443 34.6777 34.6777 36.3443 33.155 35.5164L32.7859 35.3129C32.5581 35.1889 32.3055 35.1176 32.0465 35.104C31.7876 35.0904 31.5289 35.135 31.2895 35.2344C31.05 35.3338 30.8358 35.4856 30.6626 35.6786C30.4895 35.8716 30.3617 36.1009 30.2887 36.3497L30.1666 36.7541C29.678 38.4153 27.322 38.4153 26.8307 36.7541L26.714 36.347C26.6405 36.0983 26.5122 35.8692 26.3386 35.6765C26.165 35.4839 25.9504 35.3325 25.7107 35.2336C25.4709 35.1347 25.2121 35.0907 24.9531 35.1049C24.6941 35.1191 24.4416 35.1911 24.2141 35.3156L23.845 35.5164C22.3223 36.3443 20.6557 34.6777 21.4836 33.155L21.6871 32.7859C21.8111 32.5581 21.8824 32.3055 21.896 32.0465C21.9096 31.7876 21.865 31.5289 21.7656 31.2895C21.6662 31.05 21.5144 30.8358 21.3214 30.6626C21.1284 30.4895 20.8991 30.3617 20.6503 30.2887L20.2486 30.1666C18.5847 29.678 18.5847 27.322 20.2486 26.8307L20.6503 26.714C20.8995 26.6411 21.1291 26.5133 21.3224 26.3399C21.5157 26.1666 21.6677 25.9521 21.7671 25.7123C21.8666 25.4725 21.911 25.2134 21.8972 24.9541C21.8834 24.6949 21.8116 24.442 21.6871 24.2141L21.4863 23.845C20.6557 22.3223 22.3223 20.6557 23.845 21.4836L24.2141 21.6871C24.4419 21.8111 24.6945 21.8824 24.9535 21.896C25.2124 21.9096 25.4711 21.865 25.7105 21.7656C25.95 21.6662 26.1642 21.5144 26.3374 21.3214C26.5105 21.1284 26.6383 20.8991 26.7113 20.6503L26.8334 20.2486ZM32.5714 28.5C32.5714 27.9653 32.4661 27.4359 32.2615 26.9419C32.0569 26.448 31.757 25.9991 31.3789 25.6211C31.0009 25.243 30.552 24.9431 30.0581 24.7385C29.5641 24.5339 29.0347 24.4286 28.5 24.4286C27.9653 24.4286 27.4359 24.5339 26.9419 24.7385C26.448 24.9431 25.9991 25.243 25.6211 25.6211C25.243 25.9991 24.9431 26.448 24.7385 26.9419C24.5339 27.4359 24.4286 27.9653 24.4286 28.5C24.4286 29.5798 24.8575 30.6154 25.6211 31.3789C26.3846 32.1425 27.4202 32.5714 28.5 32.5714C29.5798 32.5714 30.6154 32.1425 31.3789 31.3789C32.1425 30.6154 32.5714 29.5798 32.5714 28.5Z" fill="black"/>
</g>
<defs>
<clipPath id="clip0_8_1307">
<rect width="38" height="38" fill="white"/>
</clipPath>
</defs>
</svg>
