<svg width="31" height="31" viewBox="0 0 31 31" fill="none" xmlns="http://www.w3.org/2000/svg">
<g clip-path="url(#clip0_9_1338)">
<path d="M22.7501 20.0416C24.6261 17.4816 25.4664 14.3076 25.1028 11.1546C24.7392 8.00161 23.1984 5.1022 20.7889 3.03642C18.3793 0.970638 15.2786 -0.109165 12.1071 0.0130393C8.93555 0.135244 5.92712 1.45044 3.68365 3.69551C1.44019 5.94058 0.127145 8.94995 0.00720975 12.1216C-0.112725 15.2932 0.969296 18.3931 3.0368 20.8012C5.1043 23.2093 8.00481 24.7479 11.158 25.1093C14.3113 25.4707 17.4847 24.6281 20.0434 22.7502H20.0414C20.0996 22.8277 20.1616 22.9014 20.2313 22.973L27.6907 30.4324C28.054 30.796 28.5468 31.0003 29.0608 31.0005C29.5748 31.0007 30.0677 30.7967 30.4313 30.4334C30.7948 30.0701 30.9992 29.5772 30.9994 29.0633C30.9996 28.5493 30.7956 28.0563 30.4323 27.6928L22.9729 20.2334C22.9036 20.1633 22.8291 20.1005 22.7501 20.0416ZM23.2499 12.5939C23.2499 13.9933 22.9743 15.3789 22.4388 16.6718C21.9033 17.9647 21.1183 19.1394 20.1288 20.129C19.1393 21.1185 17.9645 21.9034 16.6717 22.4389C15.3788 22.9745 13.9931 23.2501 12.5937 23.2501C11.1943 23.2501 9.8086 22.9745 8.51573 22.4389C7.22285 21.9034 6.04811 21.1185 5.05859 20.129C4.06907 19.1394 3.28413 17.9647 2.74861 16.6718C2.21308 15.3789 1.93745 13.9933 1.93745 12.5939C1.93745 9.76764 3.06016 7.05718 5.05859 5.05875C7.05702 3.06031 9.76748 1.9376 12.5937 1.9376C15.4199 1.9376 18.1304 3.06031 20.1288 5.05875C22.1272 7.05718 23.2499 9.76764 23.2499 12.5939Z" fill="black"/>
</g>
<defs>
<clipPath id="clip0_9_1338">
<rect width="31" height="31" fill="white"/>
</clipPath>
</defs>
</svg>
