<svg width="37" height="37" viewBox="0 0 37 37" fill="none" xmlns="http://www.w3.org/2000/svg">
<g clip-path="url(#clip0_33_1031)">
<path d="M10.5103 15.5261L9.50438 18.5H6.9375L11.2434 6.9375H14.2126L18.5 18.5H15.8013L14.7954 15.5261H10.5103ZM14.2889 13.8241L12.7188 9.14825H12.6054L11.0352 13.8241H14.2889Z" fill="black"/>
<path d="M0 4.625C0 3.39837 0.487275 2.22199 1.35463 1.35463C2.22199 0.487275 3.39837 0 4.625 0L20.8125 0C22.0391 0 23.2155 0.487275 24.0829 1.35463C24.9502 2.22199 25.4375 3.39837 25.4375 4.625V11.5625H32.375C33.6016 11.5625 34.778 12.0498 35.6454 12.9171C36.5127 13.7845 37 14.9609 37 16.1875V32.375C37 33.6016 36.5127 34.778 35.6454 35.6454C34.778 36.5127 33.6016 37 32.375 37H16.1875C14.9609 37 13.7845 36.5127 12.9171 35.6454C12.0498 34.778 11.5625 33.6016 11.5625 32.375V25.4375H4.625C3.39837 25.4375 2.22199 24.9502 1.35463 24.0829C0.487275 23.2155 0 22.0391 0 20.8125V4.625ZM4.625 2.3125C4.01169 2.3125 3.42349 2.55614 2.98982 2.98982C2.55614 3.42349 2.3125 4.01169 2.3125 4.625V20.8125C2.3125 21.4258 2.55614 22.014 2.98982 22.4477C3.42349 22.8814 4.01169 23.125 4.625 23.125H20.8125C21.4258 23.125 22.014 22.8814 22.4477 22.4477C22.8814 22.014 23.125 21.4258 23.125 20.8125V4.625C23.125 4.01169 22.8814 3.42349 22.4477 2.98982C22.014 2.55614 21.4258 2.3125 20.8125 2.3125H4.625ZM21.1316 25.4259C21.5779 26.122 22.0612 26.7741 22.5885 27.3823C20.8587 28.712 18.7197 29.6971 16.1875 30.3701C16.5991 30.8719 17.2304 31.8385 17.4709 32.375C20.0725 31.5448 22.2809 30.4232 24.1448 28.9201C25.9416 30.4579 28.1663 31.6142 30.9204 32.3241C31.228 31.7367 31.8778 30.7678 32.375 30.266C29.7734 29.6809 27.6182 28.6611 25.8538 27.2967C27.4286 25.5693 28.6796 23.4788 29.6023 20.9212H32.375V18.5H25.4375V20.9212H27.2066C26.4712 22.8729 25.4953 24.4963 24.2651 25.8468C23.9253 25.4848 23.6049 25.105 23.3054 24.7091C22.6528 25.1275 21.9051 25.3741 21.1316 25.4259Z" fill="black"/>
</g>
<defs>
<clipPath id="clip0_33_1031">
<rect width="37" height="37" fill="white"/>
</clipPath>
</defs>
</svg>
