<svg width="36" height="36" viewBox="0 0 36 36" fill="none" xmlns="http://www.w3.org/2000/svg">
<path d="M24.75 3.375V5.625H32.625C32.9234 5.625 33.2095 5.74353 33.4205 5.9545C33.6315 6.16548 33.75 6.45163 33.75 6.75C33.75 7.04837 33.6315 7.33452 33.4205 7.5455C33.2095 7.75647 32.9234 7.875 32.625 7.875H31.4145L29.4953 31.86C29.4047 32.9877 28.8928 34.0399 28.0614 34.8071C27.23 35.5743 26.1401 36.0002 25.0087 36H10.9913C9.85994 36.0002 8.77004 35.5743 7.93862 34.8071C7.1072 34.0399 6.59526 32.9877 6.50475 31.86L4.5855 7.875H3.375C3.07663 7.875 2.79048 7.75647 2.5795 7.5455C2.36853 7.33452 2.25 7.04837 2.25 6.75C2.25 6.45163 2.36853 6.16548 2.5795 5.9545C2.79048 5.74353 3.07663 5.625 3.375 5.625H11.25V3.375C11.25 2.47989 11.6056 1.62145 12.2385 0.988515C12.8714 0.355579 13.7299 0 14.625 0L21.375 0C22.2701 0 23.1286 0.355579 23.7615 0.988515C24.3944 1.62145 24.75 2.47989 24.75 3.375ZM13.5 3.375V5.625H22.5V3.375C22.5 3.07663 22.3815 2.79048 22.1705 2.5795C21.9595 2.36853 21.6734 2.25 21.375 2.25H14.625C14.3266 2.25 14.0405 2.36853 13.8295 2.5795C13.6185 2.79048 13.5 3.07663 13.5 3.375ZM10.125 11.3152L11.25 30.4403C11.256 30.5898 11.2918 30.7366 11.3552 30.8721C11.4186 31.0076 11.5085 31.1291 11.6194 31.2294C11.7304 31.3298 11.8603 31.407 12.0014 31.4566C12.1426 31.5061 12.2923 31.527 12.4416 31.5181C12.591 31.5091 12.737 31.4704 12.8712 31.4043C13.0055 31.3382 13.1251 31.2459 13.2233 31.133C13.3214 31.0201 13.396 30.8887 13.4428 30.7466C13.4895 30.6044 13.5075 30.4544 13.4955 30.3053L12.3705 11.1803C12.3645 11.0307 12.3287 10.8839 12.2653 10.7484C12.2019 10.6129 12.112 10.4914 12.0011 10.3911C11.8901 10.2907 11.7602 10.2135 11.6191 10.1639C11.4779 10.1144 11.3282 10.0935 11.1789 10.1024C11.0295 10.1114 10.8835 10.1501 10.7493 10.2162C10.615 10.2823 10.4954 10.3746 10.3972 10.4875C10.2991 10.6004 10.2245 10.7318 10.1777 10.8739C10.131 11.0161 10.1131 11.1661 10.125 11.3152ZM24.8175 10.1272C24.5198 10.11 24.2274 10.2118 24.0046 10.4101C23.7818 10.6084 23.6469 10.887 23.6295 11.1848L22.5045 30.3097C22.4948 30.6031 22.6002 30.8885 22.7981 31.1053C22.9959 31.322 23.2706 31.4528 23.5636 31.4699C23.8566 31.4869 24.1446 31.3888 24.3663 31.1964C24.5879 31.0041 24.7256 30.7327 24.75 30.4403L25.875 11.3152C25.8922 11.0175 25.7905 10.7251 25.5922 10.5023C25.3939 10.2796 25.1152 10.1446 24.8175 10.1272ZM18 10.125C17.7016 10.125 17.4155 10.2435 17.2045 10.4545C16.9935 10.6655 16.875 10.9516 16.875 11.25V30.375C16.875 30.6734 16.9935 30.9595 17.2045 31.1705C17.4155 31.3815 17.7016 31.5 18 31.5C18.2984 31.5 18.5845 31.3815 18.7955 31.1705C19.0065 30.9595 19.125 30.6734 19.125 30.375V11.25C19.125 10.9516 19.0065 10.6655 18.7955 10.4545C18.5845 10.2435 18.2984 10.125 18 10.125Z" fill="black"/>
</svg>
