<svg width="35" height="35" viewBox="0 0 35 35" fill="none" xmlns="http://www.w3.org/2000/svg">
<path d="M1.09375 21.6562C1.38383 21.6562 1.66203 21.7715 1.86715 21.9766C2.07227 22.1817 2.1875 22.4599 2.1875 22.75V28.2188C2.1875 28.7989 2.41797 29.3553 2.8282 29.7655C3.23844 30.1758 3.79484 30.4062 4.375 30.4062H30.625C31.2052 30.4062 31.7616 30.1758 32.1718 29.7655C32.582 29.3553 32.8125 28.7989 32.8125 28.2188V22.75C32.8125 22.4599 32.9277 22.1817 33.1329 21.9766C33.338 21.7715 33.6162 21.6562 33.9062 21.6562C34.1963 21.6562 34.4745 21.7715 34.6796 21.9766C34.8848 22.1817 35 22.4599 35 22.75V28.2188C35 29.3791 34.5391 30.4919 33.7186 31.3123C32.8981 32.1328 31.7853 32.5938 30.625 32.5938H4.375C3.21468 32.5938 2.10188 32.1328 1.28141 31.3123C0.460936 30.4919 0 29.3791 0 28.2188V22.75C0 22.4599 0.115234 22.1817 0.320352 21.9766C0.52547 21.7715 0.803669 21.6562 1.09375 21.6562Z" fill="black"/>
<path d="M16.7256 2.50688C16.8272 2.40502 16.9479 2.32421 17.0808 2.26907C17.2137 2.21393 17.3561 2.18555 17.5 2.18555C17.6439 2.18555 17.7863 2.21393 17.9192 2.26907C18.0521 2.32421 18.1728 2.40502 18.2744 2.50688L24.8369 9.06938C25.0423 9.27475 25.1576 9.5533 25.1576 9.84375C25.1576 10.1342 25.0423 10.4127 24.8369 10.6181C24.6315 10.8235 24.353 10.9389 24.0625 10.9389C23.7721 10.9389 23.4935 10.8235 23.2881 10.6181L18.5938 5.92156V25.1562C18.5938 25.4463 18.4785 25.7245 18.2734 25.9296C18.0683 26.1348 17.7901 26.25 17.5 26.25C17.2099 26.25 16.9317 26.1348 16.7266 25.9296C16.5215 25.7245 16.4063 25.4463 16.4063 25.1562V5.92156L11.7119 10.6181C11.6102 10.7198 11.4895 10.8005 11.3566 10.8555C11.2237 10.9106 11.0813 10.9389 10.9375 10.9389C10.7937 10.9389 10.6513 10.9106 10.5184 10.8555C10.3856 10.8005 10.2648 10.7198 10.1631 10.6181C10.0614 10.5164 9.98077 10.3957 9.92574 10.2628C9.8707 10.13 9.84238 9.98757 9.84238 9.84375C9.84238 9.69994 9.8707 9.55753 9.92574 9.42466C9.98077 9.29179 10.0614 9.17107 10.1631 9.06938L16.7256 2.50688Z" fill="black"/>
</svg>
